<?xml version="1.0" encoding="UTF-8"?>
<svg width="140px" height="47px" viewBox="0 0 140 47" version="1.1" xmlns="http://www.w3.org/2000/svg" xmlns:xlink="http://www.w3.org/1999/xlink">
    <!-- Generator: Sketch 41.2 (35397) - http://www.bohemiancoding.com/sketch -->
    <title>logo</title>
    <desc>Created with Sketch.</desc>
    <defs>
        <polygon id="path-1" points="0.0251263158 22.8421053 28.3456526 22.8421053 28.3456526 0.475631579 0.0251263158 0.475631579"></polygon>
        <polygon id="path-3" points="0 46.228 139.527684 46.228 139.527684 0 0 0"></polygon>
    </defs>
    <g id="Page-1" stroke="none" stroke-width="1" fill="none" fill-rule="evenodd">
        <g id="index" transform="translate(-120.000000, -12.000000)">
            <g id="Group">
                <g id="导航">
                    <g id="Group-4" transform="translate(120.000000, 12.000000)">
                        <g id="logo">
                            <g id="Group-3" transform="translate(9.578947, 23.385895)">
                                <mask id="mask-2" fill="white">
                                    <use xlink:href="#path-1"></use>
                                </mask>
                                <g id="Clip-2"></g>
                                <path d="M27.7672316,5.35573684 C26.8867053,2.48057895 24.1920737,0.475631579 21.1783895,0.475631579 C17.3762842,0.475631579 14.2822842,3.56889474 14.2822842,7.371 C14.2822842,10.4067895 16.2680737,13.0483684 19.1373368,13.9377368 L19.1299684,13.9627895 C19.2058632,13.9863684 19.2847053,13.9944737 19.3606,14.0158421 C19.3930211,14.0254211 19.4224947,14.0408947 19.4549158,14.049 L19.4578632,14.0386842 C20.4732316,14.3223684 21.5173368,14.4837368 22.5747053,14.5132105 C23.2813368,13.5582632 23.7986,12.4839474 24.0962842,11.3344737 C23.7138632,11.3808947 23.3270211,11.4088947 22.9335474,11.4088947 C22.0102842,11.4088947 21.0980737,11.2674211 20.2168105,11.0095263 C18.5648105,10.5755263 17.4123895,9.08415789 17.4123895,7.371 C17.4123895,5.29605263 19.1027053,3.60647368 21.1783895,3.60647368 C22.8377579,3.60647368 24.3239684,4.71836842 24.7918632,6.30921053 L24.7933368,6.30847368 C25.0711263,7.21921053 25.2162842,8.16605263 25.2162842,9.12763158 C25.2162842,14.9641579 19.9751263,19.7108947 13.5343895,19.7108947 C9.67038947,19.7108947 6.24849474,17.9955263 4.12049474,15.3672105 C2.69765263,15.3657368 1.32565263,15.1351053 0.0251263158,14.7224737 C2.34323158,19.5008947 7.52028421,22.8424737 13.5343895,22.8424737 C21.7015474,22.8424737 28.3456526,16.6898421 28.3456526,9.12763158 C28.3456526,7.84184211 28.1548105,6.57152632 27.7790211,5.35278947 L27.7672316,5.35573684 Z" id="Fill-1" fill="#FFD800" mask="url(#mask-2)"></path>
                            </g>
                            <g id="Group-6" transform="translate(0.000000, 9.385895)" fill="#F9BE00">
                                <path d="M17.1182421,28.0505474 L17.1226632,28.0674947 C17.1816105,28.0527579 17.2339263,28.0254947 17.2928737,28.0092842 C17.3945579,27.9798105 17.5014,27.9694947 17.6023474,27.9370737 L17.5935053,27.9083368 C20.4207684,26.9924421 22.3652947,24.3847579 22.3652947,21.3710737 C22.3652947,17.5689684 19.2735053,14.4757053 15.4706632,14.4757053 C12.4378211,14.4757053 9.76308421,16.4821263 8.88403158,19.3661263 L8.86634737,19.3609684 C8.85308421,19.4051789 8.8494,19.4523368 8.83613684,19.4965474 C8.83245263,19.5098105 8.82582105,19.5216 8.82213684,19.5348632 L8.82655789,19.5363368 C8.52150526,20.5870737 8.3594,21.6717053 8.32918947,22.7688632 C9.28266316,23.4754947 10.3569789,23.9920211 11.5057158,24.2897053 C11.4592947,23.9080211 11.4312947,23.5204421 11.4312947,23.1277053 C11.4312947,22.1867579 11.5735053,21.2583368 11.8417158,20.3630737 C12.2934,18.7398105 13.7840316,17.6065474 15.4706632,17.6065474 C17.5470842,17.6065474 19.2359263,19.2953895 19.2359263,21.3710737 C19.2359263,23.0776 18.0989789,24.5520211 16.4624526,24.9978105 C15.5686632,25.2623368 14.6468737,25.4089684 13.7140316,25.4089684 C7.87750526,25.4089684 3.12929474,20.1685474 3.12929474,13.7285474 C3.12929474,9.86454737 4.84613684,6.44191579 7.47371579,4.31465263 C7.47518947,2.89181053 7.70655789,1.51833684 8.11918947,0.217810526 C3.34076842,2.53591579 -7.36842105e-05,7.71370526 -7.36842105e-05,13.7285474 C-7.36842105e-05,21.8957053 6.15108421,28.5405474 13.7140316,28.5405474 C14.8694,28.5405474 16.0078211,28.3570737 17.1182421,28.0505474" id="Fill-4"></path>
                            </g>
                            <path d="M8.90613684,17.5479684 L8.89361053,17.5523895 C8.90687368,17.5929158 8.92750526,17.6275474 8.94150526,17.6680737 C8.97466316,17.7719684 8.99603158,17.8802842 9.03213684,17.9827053 L9.06455789,17.9716526 C10.0939263,20.6117579 12.6028737,22.3661789 15.4706632,22.3661789 C19.2735053,22.3661789 22.3652947,19.2729158 22.3652947,15.4715474 C22.3652947,12.4637579 20.4576105,9.8546 17.6119263,8.92470526 L17.6163474,8.90996842 C17.5824526,8.89891579 17.5470842,8.89596842 17.5124526,8.88565263 C17.5050842,8.88270526 17.4984526,8.87902105 17.4910842,8.87681053 L17.4896105,8.87975789 C16.3806632,8.54007368 15.2334,8.36249474 14.0728737,8.33007368 C13.3662421,9.28428421 12.8489789,10.3586 12.5512947,11.5073368 C12.9337158,11.4609158 13.3212947,11.4336526 13.7140316,11.4336526 C14.6888737,11.4336526 15.6511895,11.5854421 16.5788737,11.8720737 C18.1675053,12.3620737 19.2359263,13.8070211 19.2359263,15.4715474 C19.2359263,17.5464947 17.5470842,19.2353368 15.4706632,19.2353368 C13.8363474,19.2353368 12.4127684,18.1956526 11.9006632,16.6490211 C11.8196105,16.3948105 11.7363474,16.1413368 11.6759263,15.8768105 C11.5138211,15.1746 11.4312947,14.4466 11.4312947,13.7149158 C11.4312947,7.87838947 16.6724526,3.13091579 23.1131895,3.13091579 C26.9771895,3.13091579 30.3990842,4.84702105 32.5270842,7.4746 C33.9499263,7.47607368 35.3226632,7.70670526 36.6224526,8.12007368 C34.3043474,3.34165263 29.1272947,7.36842105e-05 23.1131895,7.36842105e-05 C14.9460316,7.36842105e-05 8.30266316,6.15270526 8.30266316,13.7149158 C8.30266316,14.6838632 8.41024211,15.6476526 8.62392632,16.5753368 C8.69982105,16.9061789 8.80518947,17.2267053 8.90613684,17.5479684" id="Fill-7" fill="#FFD800"></path>
                            <path d="M32.5123474,8.302 C31.2029789,8.302 29.9068737,8.50168421 28.6564526,8.89515789 L28.6586632,8.904 C25.7886632,9.82063158 23.8618211,12.4518947 23.8618211,15.4714737 C23.8618211,19.2728421 26.9550842,22.3668421 30.7571895,22.3668421 C33.8077158,22.3668421 36.4566632,20.4083158 37.3497158,17.4926316 L37.3556105,17.4948421 C37.6982421,16.3844211 37.8655053,15.2342105 37.8979263,14.0729474 C36.9429789,13.3677895 35.8701368,12.8497895 34.7206632,12.5521053 C34.7670842,12.9345263 34.7950842,13.3221053 34.7950842,13.7148421 C34.7950842,14.6852632 34.6491895,15.6468421 34.3632947,16.5715789 L34.3581368,16.5737895 C33.8703474,18.1661053 32.4246632,19.2352632 30.7571895,19.2352632 C28.6815053,19.2352632 26.9911895,17.5464211 26.9911895,15.4714737 C26.9911895,13.8135789 28.0537158,12.3686316 29.6349789,11.8756842 L29.6342421,11.8727368 C30.5656105,11.5831579 31.5338211,11.4335789 32.5123474,11.4335789 C38.3488737,11.4335789 43.0970842,16.6732632 43.0970842,23.114 C43.0970842,26.978 41.3809789,30.3998947 38.7526632,32.5278947 C38.7511895,33.9507368 38.5205579,35.3234737 38.1071895,36.624 C42.8856105,34.3066316 46.2264526,29.1281053 46.2264526,23.114 C46.2264526,14.9468421 40.0752947,8.302 32.5123474,8.302" id="Fill-9" fill="#F9BE00"></path>
                            <path d="M17.6120737,8.92463158 L17.6164947,8.90989474 C17.5826,8.89884211 17.5472316,8.89589474 17.5126,8.88557895 C17.5052316,8.88263158 17.4986,8.87894737 17.4904947,8.87673684 L17.4897579,8.87968421 C16.3808105,8.54 15.2328105,8.36242105 14.0730211,8.33 C13.3663895,9.28421053 12.8491263,10.3585263 12.5514421,11.5072632 C12.9338632,11.4608421 13.3214421,11.4335789 13.7141789,11.4335789 C14.6882842,11.4335789 15.6513368,11.5853684 16.5790211,11.872 C18.1676526,12.362 19.2353368,13.8069474 19.2353368,15.4714737 C19.2353368,17.4557895 17.6872316,19.0694737 15.7375474,19.2087368 C17.6319684,19.1652632 21.4134421,18.4689474 22.1539684,13.8526316 C21.6042842,11.5603158 19.9294421,9.68210526 17.6120737,8.92463158" id="Fill-11" fill="#F9BE00"></path>
                            <path d="M8.93037895,28.6241789 L8.91564211,28.6190211 C8.90532632,28.6529158 8.90164211,28.6890211 8.89058947,28.7236526 C8.88837895,28.7310211 8.88469474,28.7376526 8.88248421,28.7450211 L8.88543158,28.7457579 C8.54574737,29.8554421 8.36816842,31.0027053 8.33574737,32.1632316 C9.28995789,32.8698632 10.3642737,33.3871263 11.5137474,33.6840737 C11.4673263,33.3023895 11.4393263,32.9148105 11.4393263,32.5220737 C11.4393263,31.5479684 11.5911158,30.5849158 11.8777474,29.6572316 C12.3677474,28.0686 13.8119579,27.0009158 15.4772211,27.0009158 C17.4608,27.0009158 19.0744842,28.5490211 19.2144842,30.4979684 C19.1710105,28.6042842 18.4746947,24.8235474 13.8591158,24.0822842 C11.5660632,24.6319684 9.68785263,26.3068105 8.93037895,28.6241789" id="Fill-13" fill="#FFD800"></path>
                            <path d="M28.5989789,37.3004211 L28.5938211,37.3151579 C28.6284526,37.3262105 28.6645579,37.3291579 28.6984526,37.3402105 C28.7058211,37.3424211 28.7131895,37.3461053 28.7205579,37.3483158 L28.7212947,37.3453684 C29.8302421,37.6850526 30.9782421,37.8626316 32.1387684,37.8957895 C32.8454,36.9408421 33.3619263,35.8672632 33.6596105,34.7177895 C33.2771895,34.7642105 32.8903474,34.7914737 32.4976105,34.7914737 C31.5227684,34.7914737 30.5604526,34.6396842 29.6327684,34.3537895 C28.0434,33.8630526 26.9757158,32.4188421 26.9757158,30.7543158 C26.9757158,28.77 28.5245579,27.1563158 30.4735053,27.0170526 C28.5790842,27.0597895 24.7983474,27.7561053 24.0578211,32.3724211 C24.6067684,34.6647368 26.2816105,36.5429474 28.5989789,37.3004211" id="Fill-15" fill="#F9BE00"></path>
                            <path d="M37.2806737,17.6302737 L37.2954105,17.6346947 C37.3064632,17.6008 37.3094105,17.5646947 37.3204632,17.5308 C37.3226737,17.5226947 37.3263579,17.5160632 37.3285684,17.5086947 L37.3256211,17.5079579 C37.6653053,16.3982737 37.8428842,15.2510105 37.8753053,14.0912211 C36.9210947,13.3845895 35.8475158,12.8673263 34.6980421,12.5696421 C34.7444632,12.9520632 34.7724632,13.3389053 34.7724632,13.7323789 C34.7724632,14.7064842 34.6199368,15.6688 34.3333053,16.5972211 C33.8433053,18.1858526 32.3990947,19.2535368 30.7338316,19.2535368 C28.7502526,19.2535368 27.1365684,17.7054316 26.9965684,15.7557474 C27.0400421,17.6501684 27.7363579,21.4301684 32.3526737,22.1714316 C34.6449895,21.6224842 36.5239368,19.9476421 37.2806737,17.6302737" id="Fill-17" fill="#FFD800"></path>
                            <path d="M59.5442842,42.0536421 L59.5442842,39.7871158 L57.4833368,36.7041684 L58.3439684,36.7041684 L59.3991263,38.3171158 C59.5936526,38.6184842 59.7749158,38.9198526 59.9421789,39.2219579 C60.1028105,38.9419579 60.2973368,38.6265895 60.5257579,38.2765895 L61.5624947,36.7041684 L62.3870211,36.7041684 L60.2523895,39.7871158 L60.2523895,42.0536421 L59.5442842,42.0536421 Z" id="Fill-19" fill="#9E9E9F"></path>
                            <path d="M63.6868105,39.4589263 C63.6868105,40.1036632 63.8607053,40.6120842 64.2062842,40.9827158 C64.5540737,41.3540842 64.9880737,41.5390316 65.5112316,41.5390316 C66.0439684,41.5390316 66.4823895,41.3518737 66.8264947,40.9768211 C67.1720737,40.6025053 67.3430211,40.0712421 67.3430211,39.3822947 C67.3430211,38.9468211 67.2693368,38.5666105 67.1219684,38.2416632 C66.9746,37.9174526 66.7601789,37.6647158 66.4757579,37.4871368 C66.1928105,37.3080842 65.8752316,37.2189263 65.5230211,37.2189263 C65.0212316,37.2189263 64.5894421,37.3906105 64.2283895,37.7347158 C63.8680737,38.0795579 63.6868105,38.6542947 63.6868105,39.4589263 M62.9566,39.4486105 C62.9566,38.5599789 63.1953368,37.8651368 63.6720737,37.3626105 C64.1488105,36.8600842 64.7640737,36.6088211 65.5186,36.6088211 C66.0122842,36.6088211 66.4580737,36.7274526 66.8537579,36.9632421 C67.2501789,37.1990316 67.5537579,37.5284 67.7608105,37.9498737 C67.9693368,38.3720842 68.0732316,38.8510316 68.0732316,39.3867158 C68.0732316,39.9282947 67.9641789,40.4138737 67.7453368,40.8427158 C67.5264947,41.2708211 67.2155474,41.5950316 66.8139684,41.8146105 C66.4131263,42.0349263 65.9798632,42.1447158 65.5156526,42.1447158 C65.0116526,42.1447158 64.5614421,42.0231368 64.1642842,41.7799789 C63.7678632,41.5368211 63.4679684,41.2045053 63.2638632,40.7837684 C63.0582842,40.3630316 62.9566,39.9179789 62.9566,39.4486105" id="Fill-21" fill="#9E9E9F"></path>
                            <path d="M72.6450421,36.7042421 L73.3531474,36.7042421 L73.3531474,39.7945579 C73.3531474,40.3324526 73.2919895,40.7590842 73.1711474,41.0759263 C73.0488316,41.3920316 72.8299895,41.6491895 72.5124105,41.8474 C72.1948316,42.0463474 71.7777789,42.1450842 71.2627263,42.1450842 C70.7616737,42.1450842 70.3512526,42.0588737 70.0322,41.8849789 C69.7138842,41.7125579 69.4862,41.4635053 69.3506211,41.1356105 C69.2135684,40.8084526 69.1457789,40.3619263 69.1457789,39.7945579 L69.1457789,36.7042421 L69.8538842,36.7042421 L69.8538842,39.7916105 C69.8538842,40.2550842 69.8966211,40.5984526 69.9828316,40.8180316 C70.0690421,41.0383474 70.2178842,41.2085579 70.4278842,41.3271895 C70.6386211,41.4465579 70.8965158,41.5069789 71.2000947,41.5069789 C71.7210421,41.5069789 72.0916737,41.3883474 72.3134632,41.1518211 C72.5345158,40.9160316 72.6450421,40.4628737 72.6450421,39.7916105 L72.6450421,36.7042421 Z" id="Fill-23" fill="#9E9E9F"></path>
                            <path d="M76.1876316,42.0536421 L76.1876316,39.7871158 L74.1266842,36.7041684 L74.9873158,36.7041684 L76.0424737,38.3171158 C76.237,38.6184842 76.4182632,38.9198526 76.5855263,39.2219579 C76.7461579,38.9419579 76.9406842,38.6265895 77.1691053,38.2765895 L78.2058421,36.7041684 L79.0303684,36.7041684 L76.8957368,39.7871158 L76.8957368,42.0536421 L76.1876316,42.0536421 Z" id="Fill-25" fill="#9E9E9F"></path>
                            <path d="M83.3255684,36.7042421 L84.0336737,36.7042421 L84.0336737,39.7945579 C84.0336737,40.3324526 83.9725158,40.7590842 83.8516737,41.0759263 C83.7293579,41.3920316 83.5105158,41.6491895 83.1929368,41.8474 C82.8753579,42.0463474 82.4590421,42.1450842 81.9432526,42.1450842 C81.4422,42.1450842 81.0317789,42.0588737 80.7127263,41.8849789 C80.3944105,41.7125579 80.1667263,41.4635053 80.0311474,41.1356105 C79.8940947,40.8084526 79.8263053,40.3619263 79.8263053,39.7945579 L79.8263053,36.7042421 L80.5344105,36.7042421 L80.5344105,39.7916105 C80.5344105,40.2550842 80.5771474,40.5984526 80.6633579,40.8180316 C80.7495684,41.0383474 80.8984105,41.2085579 81.1084105,41.3271895 C81.3191474,41.4465579 81.5770421,41.5069789 81.8813579,41.5069789 C82.4015684,41.5069789 82.7722,41.3883474 82.9939895,41.1518211 C83.2150421,40.9160316 83.3255684,40.4628737 83.3255684,39.7916105 L83.3255684,36.7042421 Z" id="Fill-27" fill="#9E9E9F"></path>
                            <mask id="mask-4" fill="white">
                                <use xlink:href="#path-3"></use>
                            </mask>
                            <g id="Clip-30"></g>
                            <polygon id="Fill-29" fill="#9E9E9F" mask="url(#mask-4)" points="89.9330526 42.0537895 90.6411579 42.0537895 90.6411579 36.7043158 89.9330526 36.7043158"></polygon>
                            <polygon id="Fill-31" fill="#9E9E9F" mask="url(#mask-4)" points="92.0322421 42.0536421 92.0322421 36.7041684 92.7580316 36.7041684 95.5690842 40.9049053 95.5690842 36.7041684 96.2477158 36.7041684 96.2477158 42.0536421 95.5211895 42.0536421 92.7108737 37.8499579 92.7108737 42.0536421"></polygon>
                            <path d="M99.1145474,42.0536421 L97.0418105,36.7041684 L97.8088632,36.7041684 L99.1985474,40.5902737 C99.3105474,40.9012211 99.4041263,41.1937474 99.4792842,41.4663789 C99.5625474,41.1738526 99.6583368,40.8828 99.7681263,40.5902737 L101.212337,36.7041684 L101.935179,36.7041684 L99.8403368,42.0536421 L99.1145474,42.0536421 Z" id="Fill-32" fill="#9E9E9F" mask="url(#mask-4)"></path>
                            <polygon id="Fill-33" fill="#9E9E9F" mask="url(#mask-4)" points="102.735095 42.0536421 102.735095 36.7041684 106.602779 36.7041684 106.602779 37.3356421 103.4432 37.3356421 103.4432 38.9736421 106.401621 38.9736421 106.401621 39.6006947 103.4432 39.6006947 103.4432 41.4221684 106.727305 41.4221684 106.727305 42.0536421"></polygon>
                            <path d="M107.612916,40.3343684 L108.280495,40.2768947 C108.312179,40.5436316 108.385863,40.7639474 108.502284,40.9348947 C108.616495,41.1065789 108.796284,41.2458421 109.039442,41.3504737 C109.2826,41.4573158 109.555968,41.5096316 109.860284,41.5096316 C110.130705,41.5096316 110.369442,41.4698421 110.575758,41.3895263 C110.782811,41.3084737 110.936811,41.1994211 111.037758,41.0594211 C111.138705,40.9194211 111.189547,40.7668947 111.189547,40.6018421 C111.189547,40.4331053 111.140916,40.2872105 111.042916,40.1619474 C110.946389,40.0366842 110.785021,39.9313158 110.561021,39.8458421 C110.418074,39.7905789 110.100495,39.7028947 109.609021,39.585 C109.117547,39.4678421 108.773442,39.3558421 108.576705,39.2504737 C108.321021,39.1171053 108.130179,38.9505789 108.004916,38.7531053 C107.880389,38.5548947 107.817021,38.3331053 107.817021,38.087 C107.817021,37.8165789 107.893653,37.5645789 108.047653,37.3295263 C108.200179,37.0944737 108.424179,36.9168947 108.718916,36.7945789 C109.013653,36.6737368 109.340811,36.6125789 109.700389,36.6125789 C110.096811,36.6125789 110.446074,36.6766842 110.749653,36.8041579 C111.052495,36.9316316 111.2846,37.1202632 111.448179,37.3685789 C111.611021,37.6168947 111.698705,37.8976316 111.711232,38.2107895 L111.0326,38.2631053 C110.995758,37.9241579 110.872705,37.6684737 110.661968,37.4953158 C110.451968,37.3228947 110.140284,37.2366842 109.729863,37.2366842 C109.301758,37.2366842 108.989337,37.3155263 108.793337,37.4724737 C108.598074,37.6294211 108.500074,37.8187895 108.500074,38.0398421 C108.500074,38.2321579 108.569337,38.3898421 108.707863,38.5143684 C108.844179,38.6381579 109.199337,38.7656316 109.774811,38.8945789 C110.350284,39.025 110.745232,39.1392105 110.958916,39.2372105 C111.2706,39.3801579 111.500495,39.5621579 111.649337,39.7817368 C111.797442,40.0020526 111.871126,40.2555263 111.871126,40.5428947 C111.871126,40.8280526 111.790074,41.0962632 111.626495,41.3475263 C111.463653,41.5987895 111.230074,41.7947895 110.923547,41.9347895 C110.619232,42.0747895 110.275863,42.1447895 109.894179,42.1447895 C109.410074,42.1447895 109.004074,42.0747895 108.676179,41.9340526 C108.349021,41.7918421 108.0926,41.5803684 107.906179,41.2959474 C107.720495,41.013 107.622495,40.6924737 107.612916,40.3343684" id="Fill-34" fill="#9E9E9F" mask="url(#mask-4)"></path>
                            <polygon id="Fill-35" fill="#9E9E9F" mask="url(#mask-4)" points="114.349789 42.0536421 114.349789 37.3356421 112.586526 37.3356421 112.586526 36.7041684 116.827789 36.7041684 116.827789 37.3356421 115.057158 37.3356421 115.057158 42.0536421"></polygon>
                            <path d="M117.680979,42.0536421 L117.680979,36.7041684 L118.747189,36.7041684 L120.013084,40.4922737 C120.129505,40.8444842 120.214979,41.1090105 120.268032,41.2836421 C120.329189,41.0891158 120.424242,40.8039579 120.553189,40.4259579 L121.833821,36.7041684 L122.786558,36.7041684 L122.786558,42.0536421 L122.104242,42.0536421 L122.104242,37.5765895 L120.549505,42.0536421 L119.910663,42.0536421 L118.364032,37.4999579 L118.364032,42.0536421 L117.680979,42.0536421 Z" id="Fill-36" fill="#9E9E9F" mask="url(#mask-4)"></path>
                            <polygon id="Fill-37" fill="#9E9E9F" mask="url(#mask-4)" points="124.092905 42.0536421 124.092905 36.7041684 127.960589 36.7041684 127.960589 37.3356421 124.801011 37.3356421 124.801011 38.9736421 127.759432 38.9736421 127.759432 39.6006947 124.801011 39.6006947 124.801011 41.4221684 128.085116 41.4221684 128.085116 42.0536421"></polygon>
                            <polygon id="Fill-38" fill="#9E9E9F" mask="url(#mask-4)" points="129.204305 42.0536421 129.204305 36.7041684 129.930095 36.7041684 132.740411 40.9049053 132.740411 36.7041684 133.419042 36.7041684 133.419042 42.0536421 132.693253 42.0536421 129.882937 37.8499579 129.882937 42.0536421"></polygon>
                            <polygon id="Fill-39" fill="#9E9E9F" mask="url(#mask-4)" points="136.120158 42.0536421 136.120158 37.3356421 134.356895 37.3356421 134.356895 36.7041684 138.598158 36.7041684 138.598158 37.3356421 136.827526 37.3356421 136.827526 42.0536421"></polygon>
                            <path d="M74.7252947,13.2494526 L74.7252947,11.6844 L64.1000316,11.6844 C64.4986632,10.8635579 64.8641368,10.0250316 65.1743474,9.17397895 L63.4552947,9.17397895 C63.1355053,10.0213474 62.7516105,10.8628211 62.3235053,11.6844 L56.3735053,11.6844 L56.3735053,13.2494526 L61.4422421,13.2494526 C59.7769789,15.9978737 57.7027684,18.3918737 55.9527684,19.8213474 L55.9527684,21.9161895 C57.1420316,21.1071368 58.5044526,19.8228211 59.8447684,18.2312421 L59.8447684,29.3789263 L61.4090842,29.3789263 L61.4090842,25.2422947 L70.6483474,25.2422947 L70.6483474,23.6779789 L61.4090842,23.6779789 L61.4090842,21.3326105 L70.6483474,21.3326105 L70.6483474,19.7682947 L61.4090842,19.7682947 L61.4090842,17.4494526 L70.8458211,17.4494526 L70.8458211,17.4479789 L70.8635053,17.4479789 C71.4242421,17.4479789 71.8781368,17.9004 71.8832947,18.4596632 L71.8832947,26.8044 C71.8781368,27.3636632 71.4242421,27.8160842 70.8635053,27.8160842 L69.3986632,27.8160842 L69.3986632,29.3789263 L71.8471895,29.3789263 C72.7314,29.3789263 73.4483474,28.6627158 73.4483474,27.7785053 L73.4483474,17.4855579 C73.4483474,16.6013474 72.7314,15.8844 71.8471895,15.8844 L61.6382421,15.8844 C62.2174,15.0495579 62.7737158,14.1675579 63.2872947,13.2494526 L74.7252947,13.2494526 Z" id="Fill-40" fill="#FFFFFF" mask="url(#mask-4)"></path>
                            <path d="M80.3637579,20.8849053 L80.9952316,14.1324842 L83.0082842,14.1324842 C82.8800737,17.4269053 82.3480737,20.0891158 81.5677579,22.1839579 L80.3637579,20.8849053 Z M84.3080737,27.3617474 L85.3941789,26.3132211 L82.7806,23.4925895 C84.0111263,20.6992211 84.7582842,17.0938526 84.7582842,12.5681684 L81.1411263,12.5681684 L81.4513368,9.25532632 L79.8862842,9.25532632 L79.5768105,12.5681684 L78.0876526,12.5681684 L78.0876526,14.1324842 L79.4301789,14.1324842 L78.7559684,21.3476421 L78.7559684,21.3483789 L78.7559684,21.3498526 L78.7574421,21.3498526 L80.9156526,23.6871158 C80.1021789,25.3258526 79.1214421,26.5188 78.0847053,27.3028 L78.0847053,29.3976421 C79.5996526,28.3704842 80.9642842,26.8909053 82.0621789,24.9286947 L84.3080737,27.3617474 Z" id="Fill-41" fill="#FFFFFF" mask="url(#mask-4)"></path>
                            <path d="M88.3017579,11.5745368 L88.3194421,11.5745368 L88.3194421,11.5752737 L93.3248105,11.5752737 L93.3248105,11.5745368 L93.3424947,11.5745368 C93.9032316,11.5745368 94.3571263,12.0269579 94.3622842,12.5862211 L94.3622842,12.6193789 L94.3622842,14.4614842 L94.3622842,14.4939053 C94.3571263,15.0539053 93.9032316,15.5055895 93.3424947,15.5055895 L93.3248105,15.5055895 L93.3248105,15.5048526 L88.3194421,15.5048526 L88.3194421,15.5055895 L88.3017579,15.5055895 C87.7410211,15.5055895 87.2871263,15.0539053 87.2819684,14.4939053 L87.2819684,14.4614842 L87.2819684,12.6193789 L87.2819684,12.5862211 C87.2871263,12.0269579 87.7410211,11.5745368 88.3017579,11.5745368 L88.3017579,11.5745368 Z M85.7169158,15.4687474 C85.7169158,16.3529579 86.4338632,17.0691684 87.3180737,17.0691684 L94.3261789,17.0691684 C95.2103895,17.0691684 95.9273368,16.3529579 95.9273368,15.4687474 L95.9273368,11.6113789 C95.9273368,10.7271684 95.2103895,10.0109579 94.3261789,10.0109579 L87.3180737,10.0109579 C86.4338632,10.0109579 85.7169158,10.7271684 85.7169158,11.6113789 L85.7169158,15.4687474 Z" id="Fill-42" fill="#FFFFFF" mask="url(#mask-4)"></path>
                            <path d="M92.8501368,24.1835263 L96.8298211,24.1835263 L96.8298211,22.6184737 L90.8827684,22.6184737 C91.1052947,21.8057368 91.2600316,20.9288947 91.3351895,19.985 L96.0649789,19.985 L96.0649789,18.4199474 L85.3269789,18.4199474 L85.3269789,19.985 L89.6176105,19.985 C89.5409789,20.9620526 89.3818211,21.8374211 89.1482421,22.6184737 L84.5614,22.6184737 L84.5614,24.1835263 L88.5381368,24.1835263 C87.3827684,26.5465789 85.5052947,27.9848947 83.6771895,29.3974211 L86.2060316,29.3974211 C87.8727684,28.1521579 89.3862421,26.4574211 90.3434,24.1835263 L91.0456105,24.1835263 C92.0027684,26.4544737 93.5088737,28.1536316 95.1741368,29.3974211 L97.7029789,29.3974211 C95.8770842,27.9863684 94.0055053,26.5436316 92.8501368,24.1835263" id="Fill-43" fill="#FFFFFF" mask="url(#mask-4)"></path>
                            <path d="M106.595263,20.1045895 L106.595263,18.4201684 L104.224842,19.4863789 L104.224842,14.1324842 L106.595263,14.1324842 L106.595263,12.5681684 L104.224842,12.5681684 L104.224842,9.17427368 L102.659789,9.17427368 L102.659789,12.5681684 L100.176632,12.5681684 L100.176632,14.1324842 L102.659789,14.1324842 L102.659789,20.1893263 L100.176632,21.3063789 L100.176632,22.9908 L102.659789,21.8744842 L102.659789,26.7229053 L102.661263,26.7229053 L102.661263,26.7951158 C102.661263,27.3588 102.203684,27.8156421 101.64,27.8156421 L100.175158,27.8156421 L100.175158,29.3792211 L102.623684,29.3792211 C103.507895,29.3792211 104.224842,28.6622737 104.224842,27.7788 L104.224842,21.1700632 L106.595263,20.1045895 Z" id="Fill-44" fill="#FFFFFF" mask="url(#mask-4)"></path>
                            <path d="M110.019074,13.8831368 L110.025705,13.8831368 L110.025705,12.5958737 C110.025705,12.0314526 110.483284,11.5746105 111.046968,11.5746105 L113.843284,11.5746105 C114.406968,11.5746105 114.863811,12.0314526 114.863811,12.5958737 L114.863811,12.8670316 L114.863074,15.2868211 C114.863074,16.1710316 115.580021,16.8879789 116.464232,16.8879789 L118.558337,16.8879789 L118.558337,15.3244 L117.447916,15.3244 C116.884232,15.3244 116.426653,14.8675579 116.426653,14.3031368 L116.427389,11.6114526 C116.427389,10.7272421 115.711179,10.0110316 114.826232,10.0110316 L110.063284,10.0110316 C109.179074,10.0110316 108.462126,10.7272421 108.462126,11.6114526 L108.462126,13.7556632 C108.454021,15.0945053 107.7916,15.6758737 106.896337,15.9661895 L106.896337,17.5231368 C108.222653,17.1569263 109.946126,16.2380842 110.019074,13.8831368" id="Fill-45" fill="#FFFFFF" mask="url(#mask-4)"></path>
                            <path d="M119.008105,29.3973474 C117.265474,28.5013474 115.300316,27.2406105 113.515684,25.6674526 C115.255368,23.8695579 116.932421,21.4880842 118.065684,18.4206105 L107.765368,18.4206105 L107.765368,19.9849263 L115.733579,19.9849263 C114.931895,21.6951368 113.741895,23.2373474 112.373579,24.5879789 C111.246211,23.4436632 110.238211,22.1652421 109.477053,20.7615579 L107.786,20.7615579 C108.783684,22.7318737 109.981789,24.3492421 111.212316,25.6608211 C109.379789,27.2376632 107.366737,28.4998737 105.621158,29.3973474 L108.620842,29.3973474 C109.688526,28.8292421 111.004526,27.9700842 112.348526,26.7815579 C113.654947,27.9708211 114.940737,28.8292421 116.008421,29.3973474 L119.008105,29.3973474 Z" id="Fill-46" fill="#FFFFFF" mask="url(#mask-4)"></path>
                            <polygon id="Fill-47" fill="#FFFFFF" mask="url(#mask-4)" points="125.527832 12.7831053 123.581095 9.17405263 121.848042 9.17405263 123.794779 12.7831053"></polygon>
                            <polygon id="Fill-48" fill="#FFFFFF" mask="url(#mask-4)" points="125.594295 14.2382947 123.861242 14.2382947 121.847453 19.0579789 123.581242 19.0579789"></polygon>
                            <path d="M138.518874,26.0492105 L138.518874,21.3208947 C138.518874,20.4374211 137.801926,19.7204737 136.918453,19.7204737 L124.285295,19.7204737 C123.401084,19.7204737 122.684874,20.4374211 122.684874,21.3208947 L122.684874,26.0492105 L124.249189,26.0492105 L124.249189,22.2957368 C124.254347,21.7364737 124.708242,21.2840526 125.268979,21.2840526 L125.286663,21.2840526 L125.286663,21.2855263 L135.916347,21.2855263 L135.916347,21.2840526 L135.934032,21.2840526 C136.494768,21.2840526 136.9494,21.7364737 136.953821,22.2957368 L136.953821,26.0492105 L138.518874,26.0492105 Z" id="Fill-49" fill="#FFFFFF" mask="url(#mask-4)"></path>
                            <path d="M129.357053,11.5755684 L136.15,11.5755684 L136.15,11.5748316 L136.167684,11.5748316 C136.728421,11.5748316 137.182316,12.0265158 137.187474,12.5857789 L137.187474,15.0932526 L138.752526,15.0932526 L138.752526,11.6116737 C138.752526,10.7274632 138.035579,10.0105158 137.151368,10.0105158 L129.648842,10.0105158 C129.673895,9.74304211 129.690842,9.47114737 129.690842,9.19335789 L127.961474,9.19335789 C127.961474,11.3965158 127.417684,12.7434632 126.498105,13.4633579 L126.498105,15.5582 C127.738211,14.8515684 128.830947,13.4125158 129.357053,11.5755684" id="Fill-50" fill="#FFFFFF" mask="url(#mask-4)"></path>
                            <path d="M132.547284,14.7770737 C133.367389,16.5233895 134.590547,17.6360211 136.509284,18.5533895 L139.4036,18.5533895 C136.558653,17.2396 133.953916,15.7217053 133.454337,12.4552842 L131.640232,12.4552842 C131.141389,15.7217053 128.536653,17.2396 125.691705,18.5533895 L128.585284,18.5533895 C130.504758,17.6360211 131.727179,16.5233895 132.547284,14.7770737" id="Fill-51" fill="#FFFFFF" mask="url(#mask-4)"></path>
                            <path d="M132.110558,23.8786947 L130.918347,23.8786947 C131.190242,23.4049053 131.450347,22.8957474 131.689821,22.3453263 L129.940558,22.3453263 C128.2274,26.5173263 124.205716,28.4404842 121.732874,29.3976421 L125.0494,29.3976421 C126.156137,28.8722737 128.690874,27.4744842 130.655295,24.3104842 C132.607926,27.4744842 135.104347,28.8722737 136.211084,29.3976421 L139.527611,29.3976421 C137.381189,28.5664842 134.068347,27.0051158 132.110558,23.8786947" id="Fill-52" fill="#FFFFFF" mask="url(#mask-4)"></path>
                        </g>
                    </g>
                </g>
            </g>
        </g>
    </g>
</svg>